%TF.GenerationSoftware,KiCad,Pcbnew,8.0.3*%
%TF.CreationDate,2025-03-04T21:36:17+03:00*%
%TF.ProjectId,5inch_dash_esp32s3,35696e63-685f-4646-9173-685f65737033,rev?*%
%TF.SameCoordinates,PX71969d0PY6c4a2b0*%
%TF.FileFunction,Copper,L1,Top*%
%TF.FilePolarity,Positive*%
%FSLAX46Y46*%
G04 Gerber Fmt 4.6, Leading zero omitted, Abs format (unit mm)*
G04 Created by KiCad (PCBNEW 8.0.3) date 2025-03-04 21:36:17*
%MOMM*%
%LPD*%
G01*
G04 APERTURE LIST*
G04 Aperture macros list*
%AMRoundRect*
0 Rectangle with rounded corners*
0 $1 Rounding radius*
0 $2 $3 $4 $5 $6 $7 $8 $9 X,Y pos of 4 corners*
0 Add a 4 corners polygon primitive as box body*
4,1,4,$2,$3,$4,$5,$6,$7,$8,$9,$2,$3,0*
0 Add four circle primitives for the rounded corners*
1,1,$1+$1,$2,$3*
1,1,$1+$1,$4,$5*
1,1,$1+$1,$6,$7*
1,1,$1+$1,$8,$9*
0 Add four rect primitives between the rounded corners*
20,1,$1+$1,$2,$3,$4,$5,0*
20,1,$1+$1,$4,$5,$6,$7,0*
20,1,$1+$1,$6,$7,$8,$9,0*
20,1,$1+$1,$8,$9,$2,$3,0*%
%AMOutline5P*
0 Free polygon, 5 corners , with rotation*
0 The origin of the aperture is its center*
0 number of corners: always 5*
0 $1 to $10 corner X, Y*
0 $11 Rotation angle, in degrees counterclockwise*
0 create outline with 5 corners*
4,1,5,$1,$2,$3,$4,$5,$6,$7,$8,$9,$10,$1,$2,$11*%
%AMOutline6P*
0 Free polygon, 6 corners , with rotation*
0 The origin of the aperture is its center*
0 number of corners: always 6*
0 $1 to $12 corner X, Y*
0 $13 Rotation angle, in degrees counterclockwise*
0 create outline with 6 corners*
4,1,6,$1,$2,$3,$4,$5,$6,$7,$8,$9,$10,$11,$12,$1,$2,$13*%
%AMOutline7P*
0 Free polygon, 7 corners , with rotation*
0 The origin of the aperture is its center*
0 number of corners: always 7*
0 $1 to $14 corner X, Y*
0 $15 Rotation angle, in degrees counterclockwise*
0 create outline with 7 corners*
4,1,7,$1,$2,$3,$4,$5,$6,$7,$8,$9,$10,$11,$12,$13,$14,$1,$2,$15*%
%AMOutline8P*
0 Free polygon, 8 corners , with rotation*
0 The origin of the aperture is its center*
0 number of corners: always 8*
0 $1 to $16 corner X, Y*
0 $17 Rotation angle, in degrees counterclockwise*
0 create outline with 8 corners*
4,1,8,$1,$2,$3,$4,$5,$6,$7,$8,$9,$10,$11,$12,$13,$14,$15,$16,$1,$2,$17*%
G04 Aperture macros list end*
%TA.AperFunction,SMDPad,CuDef*%
%ADD10Outline5P,-0.900000X1.060000X-0.360000X1.600000X0.900000X1.600000X0.900000X-1.600000X-0.900000X-1.600000X180.000000*%
%TD*%
%TA.AperFunction,SMDPad,CuDef*%
%ADD11RoundRect,0.225000X0.675000X1.375000X-0.675000X1.375000X-0.675000X-1.375000X0.675000X-1.375000X0*%
%TD*%
%TA.AperFunction,SMDPad,CuDef*%
%ADD12RoundRect,0.250000X1.500000X0.900000X-1.500000X0.900000X-1.500000X-0.900000X1.500000X-0.900000X0*%
%TD*%
%TA.AperFunction,SMDPad,CuDef*%
%ADD13Outline6P,-1.000000X2.200000X-0.600000X2.600000X0.600000X2.600000X1.000000X2.200000X1.000000X-2.600000X-1.000000X-2.600000X90.000000*%
%TD*%
%TA.AperFunction,SMDPad,CuDef*%
%ADD14O,5.200000X2.000000*%
%TD*%
%TA.AperFunction,SMDPad,CuDef*%
%ADD15Outline5P,-1.000000X1.000000X-0.400000X1.600000X1.000000X1.600000X1.000000X-1.600000X-1.000000X-1.600000X0.000000*%
%TD*%
%TA.AperFunction,SMDPad,CuDef*%
%ADD16RoundRect,0.250000X-0.750000X-1.350000X0.750000X-1.350000X0.750000X1.350000X-0.750000X1.350000X0*%
%TD*%
%TA.AperFunction,SMDPad,CuDef*%
%ADD17O,2.000000X4.200000*%
%TD*%
%TA.AperFunction,ComponentPad*%
%ADD18RoundRect,0.250000X0.600000X0.725000X-0.600000X0.725000X-0.600000X-0.725000X0.600000X-0.725000X0*%
%TD*%
%TA.AperFunction,ComponentPad*%
%ADD19O,1.700000X1.950000*%
%TD*%
%TA.AperFunction,Conductor*%
%ADD20C,0.500000*%
%TD*%
%TA.AperFunction,Conductor*%
%ADD21C,0.300000*%
%TD*%
%TA.AperFunction,Conductor*%
%ADD22C,1.000000*%
%TD*%
G04 APERTURE END LIST*
D10*
%TO.P,D2,1,GNDin1*%
%TO.N,GNDA*%
X34604000Y22271000D03*
D11*
%TO.P,D2,2,GNDin2*%
X32064000Y22271000D03*
%TO.P,D2,3,Vin1*%
%TO.N,Net-(D2-Vin1)*%
X23936000Y22271000D03*
%TO.P,D2,4,Vin2*%
X21396000Y22271000D03*
%TO.P,D2,5,Vout1*%
%TO.N,+5V*%
X21396000Y3729000D03*
%TO.P,D2,6,Vout2*%
X23936000Y3729000D03*
%TO.P,D2,7,GNDout1*%
%TO.N,GND*%
X32064000Y3729000D03*
%TO.P,D2,8,GNDout2*%
X34604000Y3729000D03*
%TD*%
D12*
%TO.P,D3,1,K*%
%TO.N,Net-(D2-Vin1)*%
X27866000Y26936000D03*
%TO.P,D3,2,A*%
%TO.N,+12V*%
X22466000Y26936000D03*
%TD*%
D13*
%TO.P,J3,1,Pin_1*%
%TO.N,+5V*%
X3068000Y21721000D03*
D14*
%TO.P,J3,2,Pin_2*%
%TO.N,GND*%
X3068000Y24261000D03*
%TD*%
D13*
%TO.P,J2,1,Pin_1*%
%TO.N,GND*%
X3068000Y8140000D03*
D14*
%TO.P,J2,2,Pin_2*%
%TO.N,+3.3V*%
X3068000Y10680000D03*
%TO.P,J2,3,Pin_3*%
%TO.N,TX*%
X3068000Y13220000D03*
%TO.P,J2,4,Pin_4*%
%TO.N,RX*%
X3068000Y15760000D03*
%TD*%
D15*
%TO.P,D1,1,Vcc*%
%TO.N,+3.3V*%
X8940000Y3500000D03*
D16*
%TO.P,D1,2,TX*%
%TO.N,TX*%
X11480000Y3500000D03*
%TO.P,D1,3,RX*%
%TO.N,RX*%
X14020000Y3500000D03*
%TO.P,D1,4,GND*%
%TO.N,GND*%
X16560000Y3500000D03*
D17*
%TO.P,D1,5,CAN-L*%
%TO.N,CAN-L*%
X14020000Y22500000D03*
%TO.P,D1,6,CAN-H*%
%TO.N,CAN-H*%
X11480000Y22500000D03*
%TD*%
D18*
%TO.P,J1,1,Pin_1*%
%TO.N,GNDA*%
X16958000Y27444000D03*
D19*
%TO.P,J1,2,Pin_2*%
%TO.N,+12V*%
X14458000Y27444000D03*
%TO.P,J1,3,Pin_3*%
%TO.N,CAN-L*%
X11958000Y27444000D03*
%TO.P,J1,4,Pin_4*%
%TO.N,CAN-H*%
X9458000Y27444000D03*
%TD*%
D20*
%TO.N,GND*%
X6400000Y23027238D02*
X6400000Y23000000D01*
X5166238Y24261000D02*
X6400000Y23027238D01*
X3068000Y24261000D02*
X5166238Y24261000D01*
D21*
%TO.N,GNDA*%
X33325090Y20992090D02*
X34604000Y22271000D01*
X33000000Y19386139D02*
X33325090Y19711229D01*
X33325090Y19711229D02*
X33325090Y20992090D01*
X33331906Y24668094D02*
X33250000Y24750000D01*
X33331906Y23543094D02*
X33331906Y24668094D01*
X34604000Y22271000D02*
X33331906Y23543094D01*
%TO.N,GND*%
X33331647Y5913627D02*
X33250000Y5995274D01*
X33331647Y5001353D02*
X33331647Y5913627D01*
X34604000Y3729000D02*
X33331647Y5001353D01*
X33322568Y1281423D02*
X33471638Y1132353D01*
X33322568Y2454476D02*
X33322568Y1281423D01*
X32517044Y3260000D02*
X33322568Y2454476D01*
X32204000Y3260000D02*
X32517044Y3260000D01*
D22*
%TO.N,Net-(D2-Vin1)*%
X27866000Y26936000D02*
X26623424Y25693424D01*
X26623424Y24029424D02*
X24584000Y21990000D01*
X24584000Y21990000D02*
X24584000Y21321000D01*
X26623424Y25693424D02*
X26623424Y24029424D01*
%TO.N,+12V*%
X14697745Y25802255D02*
X16612000Y23888000D01*
X14458000Y27444000D02*
X14697745Y27204255D01*
X14697745Y27204255D02*
X14697745Y25802255D01*
X22466000Y26776000D02*
X22466000Y26936000D01*
X16612000Y23888000D02*
X19578000Y23888000D01*
X19578000Y23888000D02*
X22466000Y26776000D01*
D20*
%TO.N,CAN-L*%
X12466000Y26034000D02*
X14020000Y24480000D01*
X12466000Y26936000D02*
X12466000Y26034000D01*
X14020000Y24480000D02*
X14020000Y22500000D01*
X11958000Y27444000D02*
X12466000Y26936000D01*
%TO.N,CAN-H*%
X9458000Y26542000D02*
X11480000Y24520000D01*
X11480000Y24520000D02*
X11480000Y22500000D01*
X9458000Y27444000D02*
X9458000Y26542000D01*
%TO.N,+3.3V*%
X5639000Y10680000D02*
X9675881Y6643119D01*
X9675881Y6643119D02*
X9675881Y4235881D01*
X3068000Y10680000D02*
X5639000Y10680000D01*
X9675881Y4235881D02*
X8940000Y3500000D01*
%TO.N,RX*%
X5684000Y15760000D02*
X13250000Y8194000D01*
X3068000Y15760000D02*
X5684000Y15760000D01*
X13250000Y4270000D02*
X14020000Y3500000D01*
X13250000Y8194000D02*
X13250000Y4270000D01*
%TO.N,GND*%
X14527311Y6303046D02*
X14385504Y6303046D01*
X16560000Y4128550D02*
X16560000Y4270357D01*
D21*
X16560000Y3500000D02*
X16560000Y4128550D01*
D20*
X16560000Y2678698D02*
X16507708Y2678698D01*
X4234000Y8140000D02*
X4760491Y8666491D01*
D21*
X16560000Y3500000D02*
X16560000Y2678698D01*
X4234000Y8140000D02*
X4894000Y8800000D01*
D20*
X4760491Y8666491D02*
X6239232Y8666491D01*
D21*
X3068000Y8140000D02*
X1674750Y8140000D01*
X3068000Y24261000D02*
X1489853Y24261000D01*
X3068000Y8140000D02*
X4234000Y8140000D01*
D20*
X14947479Y1118469D02*
X14947479Y1066177D01*
X16507708Y2678698D02*
X14947479Y1118469D01*
X16560000Y4270357D02*
X14527311Y6303046D01*
%TO.N,TX*%
X3068000Y13220000D02*
X5474000Y13220000D01*
X11480000Y7214000D02*
X11480000Y3500000D01*
X5474000Y13220000D02*
X11480000Y7214000D01*
D22*
%TO.N,+5V*%
X21650000Y3731000D02*
X21650000Y4350000D01*
D21*
X21650000Y3731000D02*
X24190000Y3731000D01*
D22*
X4279000Y21721000D02*
X3068000Y21721000D01*
X21650000Y4350000D02*
X4279000Y21721000D01*
%TD*%
%TA.AperFunction,Conductor*%
%TO.N,GND*%
G36*
X14921039Y29725815D02*
G01*
X14966794Y29673011D01*
X14978000Y29621500D01*
X14978000Y28990713D01*
X14958315Y28923674D01*
X14905511Y28877919D01*
X14836353Y28867975D01*
X14815684Y28872781D01*
X14812015Y28873974D01*
X14774243Y28886246D01*
X14774239Y28886247D01*
X14774238Y28886247D01*
X14655028Y28905128D01*
X14564287Y28919500D01*
X14351713Y28919500D01*
X14303042Y28911792D01*
X14141760Y28886247D01*
X13939585Y28820556D01*
X13750179Y28724049D01*
X13578213Y28599110D01*
X13427894Y28448791D01*
X13427890Y28448786D01*
X13308318Y28284207D01*
X13252989Y28241541D01*
X13183375Y28235562D01*
X13121580Y28268167D01*
X13107682Y28284207D01*
X12988109Y28448786D01*
X12988105Y28448791D01*
X12837786Y28599110D01*
X12665820Y28724049D01*
X12476414Y28820556D01*
X12476413Y28820557D01*
X12476412Y28820557D01*
X12274243Y28886246D01*
X12274241Y28886247D01*
X12274240Y28886247D01*
X12112957Y28911792D01*
X12064287Y28919500D01*
X11851713Y28919500D01*
X11803042Y28911792D01*
X11641760Y28886247D01*
X11439585Y28820556D01*
X11250179Y28724049D01*
X11078213Y28599110D01*
X10927894Y28448791D01*
X10927890Y28448786D01*
X10808318Y28284207D01*
X10752989Y28241541D01*
X10683375Y28235562D01*
X10621580Y28268167D01*
X10607682Y28284207D01*
X10488109Y28448786D01*
X10488105Y28448791D01*
X10337786Y28599110D01*
X10165820Y28724049D01*
X9976414Y28820556D01*
X9976413Y28820557D01*
X9976412Y28820557D01*
X9774243Y28886246D01*
X9774241Y28886247D01*
X9774240Y28886247D01*
X9612957Y28911792D01*
X9564287Y28919500D01*
X9351713Y28919500D01*
X9303042Y28911792D01*
X9141760Y28886247D01*
X8939585Y28820556D01*
X8750179Y28724049D01*
X8578213Y28599110D01*
X8427890Y28448787D01*
X8302951Y28276821D01*
X8206444Y28087415D01*
X8140753Y27885240D01*
X8107500Y27675287D01*
X8107500Y27212714D01*
X8140753Y27002761D01*
X8206444Y26800586D01*
X8302951Y26611180D01*
X8427890Y26439214D01*
X8427896Y26439208D01*
X8578208Y26288896D01*
X8631109Y26250462D01*
X8643586Y26240084D01*
X8644387Y26239324D01*
X8644390Y26239320D01*
X9582656Y25348728D01*
X9582663Y25348722D01*
X9582665Y25348720D01*
X9621905Y25314836D01*
X9634082Y25304550D01*
X9984144Y24954488D01*
X10017629Y24893165D01*
X10020380Y24862270D01*
X9975012Y23623261D01*
X9975742Y23571922D01*
X9975743Y23571915D01*
X9976831Y23566757D01*
X9979500Y23541167D01*
X9979500Y21281903D01*
X10016446Y21048632D01*
X10089433Y20824004D01*
X10194734Y20617342D01*
X10196657Y20613567D01*
X10335483Y20422490D01*
X10502490Y20255483D01*
X10693567Y20116657D01*
X10792991Y20065998D01*
X10904003Y20009434D01*
X10904005Y20009434D01*
X10904008Y20009432D01*
X11024412Y19970311D01*
X11128631Y19936447D01*
X11361903Y19899500D01*
X11361908Y19899500D01*
X11598097Y19899500D01*
X11831368Y19936447D01*
X12055992Y20009432D01*
X12266433Y20116657D01*
X12457510Y20255483D01*
X12624517Y20422490D01*
X12649682Y20457128D01*
X12705011Y20499793D01*
X12774625Y20505772D01*
X12836420Y20473167D01*
X12850315Y20457130D01*
X12875483Y20422490D01*
X13042490Y20255483D01*
X13233567Y20116657D01*
X13332991Y20065998D01*
X13444003Y20009434D01*
X13444005Y20009434D01*
X13444008Y20009432D01*
X13564412Y19970311D01*
X13668631Y19936447D01*
X13901903Y19899500D01*
X13901908Y19899500D01*
X14138097Y19899500D01*
X14371368Y19936447D01*
X14595992Y20009432D01*
X14806433Y20116657D01*
X14997510Y20255483D01*
X15164517Y20422490D01*
X15303343Y20613567D01*
X15410568Y20824008D01*
X15483553Y21048632D01*
X15520500Y21281903D01*
X15520500Y23265218D01*
X15540185Y23332257D01*
X15592989Y23378012D01*
X15662147Y23387956D01*
X15725703Y23358931D01*
X15732157Y23352922D01*
X15834860Y23250219D01*
X15834861Y23250218D01*
X15912878Y23172201D01*
X15974219Y23110860D01*
X16138079Y23001372D01*
X16138086Y23001368D01*
X16221954Y22966629D01*
X16320164Y22925949D01*
X16513454Y22887501D01*
X16513457Y22887500D01*
X16513459Y22887500D01*
X19676542Y22887500D01*
X19695870Y22891345D01*
X19773188Y22906725D01*
X19847312Y22921469D01*
X19916903Y22915240D01*
X19972079Y22872376D01*
X19995322Y22806485D01*
X19995500Y22799851D01*
X19995500Y20847663D01*
X19995501Y20847645D01*
X20005650Y20748293D01*
X20005651Y20748290D01*
X20058996Y20587306D01*
X20059001Y20587295D01*
X20148029Y20442960D01*
X20148032Y20442956D01*
X20267955Y20323033D01*
X20267959Y20323030D01*
X20412294Y20234002D01*
X20412297Y20234001D01*
X20412303Y20233997D01*
X20573292Y20180651D01*
X20672655Y20170500D01*
X22119344Y20170501D01*
X22119352Y20170502D01*
X22119355Y20170502D01*
X22173760Y20176060D01*
X22218708Y20180651D01*
X22379697Y20233997D01*
X22524044Y20323032D01*
X22578319Y20377307D01*
X22639642Y20410792D01*
X22709334Y20405808D01*
X22753681Y20377307D01*
X22807955Y20323033D01*
X22807959Y20323030D01*
X22952294Y20234002D01*
X22952297Y20234001D01*
X22952303Y20233997D01*
X23113292Y20180651D01*
X23212655Y20170500D01*
X24659344Y20170501D01*
X24659352Y20170502D01*
X24659355Y20170502D01*
X24713760Y20176060D01*
X24758708Y20180651D01*
X24919697Y20233997D01*
X25064044Y20323032D01*
X25183968Y20442956D01*
X25273003Y20587303D01*
X25276795Y20593450D01*
X25278011Y20592700D01*
X25295258Y20617338D01*
X25361139Y20683218D01*
X25470632Y20847086D01*
X25546051Y21029165D01*
X25584500Y21222459D01*
X25584500Y21524219D01*
X25604185Y21591258D01*
X25620815Y21611896D01*
X25716320Y21707401D01*
X25777642Y21740885D01*
X25847334Y21735901D01*
X25903267Y21694029D01*
X25927684Y21628565D01*
X25928000Y21619719D01*
X25928000Y17284000D01*
X36741500Y17284000D01*
X36808539Y17264315D01*
X36854294Y17211511D01*
X36865500Y17160000D01*
X36865500Y624500D01*
X36845815Y557461D01*
X36793011Y511706D01*
X36741500Y500500D01*
X624500Y500500D01*
X557461Y520185D01*
X511706Y572989D01*
X500500Y624500D01*
X500500Y2920163D01*
X1617500Y2920163D01*
X1617500Y2691838D01*
X1653215Y2466340D01*
X1723770Y2249197D01*
X1760080Y2177936D01*
X1827421Y2045772D01*
X1961621Y1861063D01*
X2123063Y1699621D01*
X2307772Y1565421D01*
X2360912Y1538345D01*
X2511196Y1461771D01*
X2511198Y1461771D01*
X2511201Y1461769D01*
X2627592Y1423951D01*
X2728339Y1391216D01*
X2953838Y1355500D01*
X2953843Y1355500D01*
X3182162Y1355500D01*
X3407660Y1391216D01*
X3433155Y1399500D01*
X3624799Y1461769D01*
X3828228Y1565421D01*
X4012937Y1699621D01*
X4174379Y1861063D01*
X4308579Y2045772D01*
X4412231Y2249201D01*
X4482784Y2466340D01*
X4518500Y2691838D01*
X4518500Y2920163D01*
X4482784Y3145661D01*
X4412229Y3362804D01*
X4342323Y3500001D01*
X4308579Y3566228D01*
X4174379Y3750937D01*
X4012937Y3912379D01*
X3828228Y4046579D01*
X3624803Y4150230D01*
X3407660Y4220785D01*
X3182162Y4256500D01*
X3182157Y4256500D01*
X2953843Y4256500D01*
X2953838Y4256500D01*
X2728339Y4220785D01*
X2511196Y4150230D01*
X2307771Y4046579D01*
X2123061Y3912378D01*
X1961622Y3750939D01*
X1827421Y3566229D01*
X1723770Y3362804D01*
X1653215Y3145661D01*
X1617500Y2920163D01*
X500500Y2920163D01*
X500500Y6565448D01*
X520185Y6632487D01*
X572989Y6678242D01*
X642147Y6688186D01*
X671953Y6680009D01*
X743075Y6650550D01*
X827058Y6640001D01*
X827065Y6640000D01*
X1214447Y6640000D01*
X1214447Y6640001D01*
X1921552Y6640001D01*
X1921553Y6640000D01*
X4214447Y6640000D01*
X4214447Y6640001D01*
X3068000Y7786447D01*
X1921552Y6640001D01*
X1214447Y6640001D01*
X2980319Y8405872D01*
X3041642Y8439357D01*
X3111334Y8434373D01*
X3155681Y8405872D01*
X4921553Y6640000D01*
X5715828Y6640000D01*
X5715844Y6640001D01*
X5775372Y6646402D01*
X5775379Y6646404D01*
X5910086Y6696646D01*
X5910093Y6696650D01*
X6025187Y6782810D01*
X6025190Y6782813D01*
X6111350Y6897907D01*
X6111354Y6897914D01*
X6161596Y7032621D01*
X6161598Y7032628D01*
X6167999Y7092156D01*
X6168000Y7092173D01*
X6168000Y8790270D01*
X6187685Y8857309D01*
X6240489Y8903064D01*
X6309647Y8913008D01*
X6373203Y8883983D01*
X6379681Y8877951D01*
X8856654Y6400978D01*
X8890139Y6339655D01*
X8885155Y6269963D01*
X8860711Y6229869D01*
X7911585Y5186205D01*
X7911568Y5186185D01*
X7897997Y5167781D01*
X7885882Y5153698D01*
X7557117Y4824933D01*
X7557108Y4824923D01*
X7505136Y4758018D01*
X7450060Y4625050D01*
X7439500Y4540981D01*
X7439500Y1852130D01*
X7439501Y1852124D01*
X7445908Y1792517D01*
X7496202Y1657672D01*
X7496206Y1657665D01*
X7582452Y1542456D01*
X7582455Y1542453D01*
X7697664Y1456207D01*
X7697671Y1456203D01*
X7832517Y1405909D01*
X7832516Y1405909D01*
X7839444Y1405165D01*
X7892127Y1399500D01*
X9987872Y1399501D01*
X10047483Y1405909D01*
X10182331Y1456204D01*
X10224488Y1487764D01*
X10289949Y1512180D01*
X10358222Y1497329D01*
X10363893Y1494035D01*
X10374064Y1487762D01*
X10410666Y1465186D01*
X10577203Y1410001D01*
X10679991Y1399500D01*
X12280008Y1399501D01*
X12382797Y1410001D01*
X12549334Y1465186D01*
X12684905Y1548807D01*
X12752296Y1567246D01*
X12815094Y1548807D01*
X12950666Y1465186D01*
X13117203Y1410001D01*
X13219991Y1399500D01*
X14820008Y1399501D01*
X14922797Y1410001D01*
X15089334Y1465186D01*
X15225382Y1549102D01*
X15292771Y1567540D01*
X15355573Y1549099D01*
X15490869Y1465647D01*
X15490880Y1465642D01*
X15657302Y1410495D01*
X15657309Y1410494D01*
X15760019Y1400001D01*
X17359971Y1400001D01*
X17359987Y1400002D01*
X17462697Y1410495D01*
X17629119Y1465642D01*
X17629124Y1465644D01*
X17778345Y1557685D01*
X17902314Y1681654D01*
X17949039Y1757408D01*
X17949039Y1757409D01*
X16294128Y3412320D01*
X16260643Y3473643D01*
X16262528Y3500001D01*
X16913553Y3500001D01*
X16913553Y3499999D01*
X18059998Y2353554D01*
X18059999Y2353555D01*
X18059999Y4646447D01*
X18059998Y4646448D01*
X16913553Y3500001D01*
X16262528Y3500001D01*
X16265627Y3543335D01*
X16294128Y3587682D01*
X16560000Y3853553D01*
X17949039Y5242593D01*
X17949039Y5242594D01*
X17902315Y5318346D01*
X17778345Y5442316D01*
X17629124Y5534357D01*
X17629119Y5534359D01*
X17462697Y5589506D01*
X17462690Y5589507D01*
X17359980Y5600000D01*
X15760028Y5600000D01*
X15760012Y5599999D01*
X15657302Y5589506D01*
X15490880Y5534359D01*
X15490875Y5534357D01*
X15355573Y5450901D01*
X15288180Y5432461D01*
X15225380Y5450901D01*
X15089340Y5534811D01*
X15089335Y5534813D01*
X15089334Y5534814D01*
X14922797Y5589999D01*
X14922794Y5590000D01*
X14827288Y5599757D01*
X14762596Y5626154D01*
X14756175Y5631640D01*
X14040784Y6286348D01*
X14004619Y6346129D01*
X14000500Y6377823D01*
X14000500Y8267921D01*
X13971659Y8412908D01*
X13971658Y8412909D01*
X13971658Y8412913D01*
X13915084Y8549495D01*
X13882186Y8598730D01*
X13882185Y8598732D01*
X13832956Y8672411D01*
X13832952Y8672416D01*
X6918563Y15586805D01*
X6907206Y15599870D01*
X6890996Y15621386D01*
X6890987Y15621395D01*
X5935327Y16571177D01*
X5922419Y16586243D01*
X5812522Y16737504D01*
X5812518Y16737509D01*
X5645512Y16904515D01*
X5645510Y16904517D01*
X5454433Y17043343D01*
X5428945Y17056330D01*
X5243996Y17150567D01*
X5019368Y17223554D01*
X4786097Y17260500D01*
X4786092Y17260500D01*
X1349908Y17260500D01*
X1349903Y17260500D01*
X1116631Y17223554D01*
X892003Y17150567D01*
X680795Y17042950D01*
X612126Y17030054D01*
X547385Y17056330D01*
X507128Y17113437D01*
X500500Y17153435D01*
X500500Y20145907D01*
X520185Y20212946D01*
X572989Y20258701D01*
X642147Y20268645D01*
X671951Y20260469D01*
X742950Y20231060D01*
X827023Y20220500D01*
X2670178Y20220501D01*
X2713627Y20212640D01*
X5338777Y19230529D01*
X5383009Y19202071D01*
X19232063Y5353017D01*
X19260317Y5309324D01*
X19925091Y3557251D01*
X19925092Y3557247D01*
X19925093Y3557247D01*
X19929091Y3546709D01*
X19929091Y3546708D01*
X19987436Y3392934D01*
X19995500Y3348946D01*
X19995500Y2305663D01*
X19995501Y2305645D01*
X20005650Y2206293D01*
X20005651Y2206290D01*
X20058996Y2045306D01*
X20059001Y2045295D01*
X20148029Y1900960D01*
X20148032Y1900956D01*
X20267955Y1781033D01*
X20267959Y1781030D01*
X20412294Y1692002D01*
X20412297Y1692001D01*
X20412303Y1691997D01*
X20573292Y1638651D01*
X20672655Y1628500D01*
X22119344Y1628501D01*
X22119352Y1628502D01*
X22119355Y1628502D01*
X22173760Y1634060D01*
X22218708Y1638651D01*
X22379697Y1691997D01*
X22524044Y1781032D01*
X22578319Y1835307D01*
X22639642Y1868792D01*
X22709334Y1863808D01*
X22753681Y1835307D01*
X22807955Y1781033D01*
X22807959Y1781030D01*
X22952294Y1692002D01*
X22952297Y1692001D01*
X22952303Y1691997D01*
X23113292Y1638651D01*
X23212655Y1628500D01*
X24659344Y1628501D01*
X24659352Y1628502D01*
X24659355Y1628502D01*
X24713760Y1634060D01*
X24758708Y1638651D01*
X24919697Y1691997D01*
X25064044Y1781032D01*
X25183968Y1900956D01*
X25270611Y2041425D01*
X30729976Y2041425D01*
X30729976Y2041423D01*
X30816423Y1901272D01*
X30936271Y1781425D01*
X31080507Y1692458D01*
X31080518Y1692453D01*
X31241393Y1639145D01*
X31340683Y1629001D01*
X32787307Y1629001D01*
X32787323Y1629002D01*
X32886607Y1639145D01*
X33047481Y1692453D01*
X33047492Y1692458D01*
X33191728Y1781425D01*
X33191732Y1781428D01*
X33246319Y1836014D01*
X33307642Y1869499D01*
X33377334Y1864515D01*
X33421681Y1836014D01*
X33476267Y1781428D01*
X33476271Y1781425D01*
X33620507Y1692458D01*
X33620518Y1692453D01*
X33781393Y1639145D01*
X33880683Y1629001D01*
X35327307Y1629001D01*
X35327323Y1629002D01*
X35426607Y1639145D01*
X35587481Y1692453D01*
X35587492Y1692458D01*
X35731728Y1781425D01*
X35731732Y1781428D01*
X35851572Y1901268D01*
X35851575Y1901272D01*
X35938022Y2041423D01*
X35938022Y2041426D01*
X34604000Y3375447D01*
X33507000Y2278448D01*
X33507000Y2229447D01*
X33487315Y2162408D01*
X33434511Y2116653D01*
X33383000Y2105447D01*
X33285000Y2105447D01*
X33217961Y2125132D01*
X33172206Y2177936D01*
X33161000Y2229447D01*
X33161000Y2278447D01*
X32064000Y3375447D01*
X30729976Y2041425D01*
X25270611Y2041425D01*
X25273003Y2045303D01*
X25326349Y2206292D01*
X25336500Y2305655D01*
X25336500Y2682554D01*
X30664000Y2682554D01*
X31710447Y3729000D01*
X32417553Y3729000D01*
X33334000Y2812553D01*
X34250447Y3729000D01*
X34250446Y3729001D01*
X34957553Y3729001D01*
X34957553Y3729000D01*
X36003998Y2682554D01*
X36003999Y2682555D01*
X36003999Y4775447D01*
X36003998Y4775448D01*
X34957553Y3729001D01*
X34250446Y3729001D01*
X33334000Y4645447D01*
X32417553Y3729000D01*
X31710447Y3729000D01*
X31710447Y3729001D01*
X30664000Y4775448D01*
X30664000Y2682554D01*
X25336500Y2682554D01*
X25336499Y5152344D01*
X25334763Y5169334D01*
X25326349Y5251708D01*
X25326348Y5251711D01*
X25307257Y5309324D01*
X25273003Y5412697D01*
X25272999Y5412703D01*
X25272998Y5412706D01*
X25270610Y5416578D01*
X30729976Y5416578D01*
X30729976Y5416577D01*
X32064000Y4082553D01*
X33160999Y5179553D01*
X33161000Y5179554D01*
X33161000Y5228553D01*
X33180685Y5295592D01*
X33233489Y5341347D01*
X33285000Y5352553D01*
X33383000Y5352553D01*
X33450039Y5332868D01*
X33495794Y5280064D01*
X33507000Y5228553D01*
X33507000Y5179553D01*
X34604000Y4082553D01*
X34604001Y4082553D01*
X35938022Y5416577D01*
X35938022Y5416578D01*
X35851572Y5556733D01*
X35731728Y5676576D01*
X35587492Y5765543D01*
X35587481Y5765548D01*
X35426606Y5818856D01*
X35327316Y5829000D01*
X33880692Y5829000D01*
X33880676Y5828999D01*
X33781392Y5818856D01*
X33620518Y5765548D01*
X33620507Y5765543D01*
X33476271Y5676576D01*
X33421681Y5621986D01*
X33360357Y5588502D01*
X33290665Y5593487D01*
X33246319Y5621986D01*
X33191728Y5676576D01*
X33047492Y5765543D01*
X33047481Y5765548D01*
X32886606Y5818856D01*
X32787316Y5829000D01*
X31340692Y5829000D01*
X31340676Y5828999D01*
X31241392Y5818856D01*
X31080518Y5765548D01*
X31080507Y5765543D01*
X30936271Y5676576D01*
X30816427Y5556733D01*
X30729976Y5416578D01*
X25270610Y5416578D01*
X25183970Y5557041D01*
X25183967Y5557045D01*
X25064044Y5676968D01*
X25064040Y5676971D01*
X24919705Y5765999D01*
X24919699Y5766002D01*
X24919697Y5766003D01*
X24919694Y5766004D01*
X24758709Y5819349D01*
X24659346Y5829500D01*
X23212662Y5829500D01*
X23212644Y5829499D01*
X23113292Y5819350D01*
X23113289Y5819349D01*
X22952305Y5766004D01*
X22952294Y5765999D01*
X22807959Y5676971D01*
X22807955Y5676968D01*
X22753681Y5622693D01*
X22692358Y5589208D01*
X22622666Y5594192D01*
X22578319Y5622693D01*
X22524044Y5676968D01*
X22524040Y5676971D01*
X22379705Y5765999D01*
X22379699Y5766002D01*
X22379697Y5766003D01*
X22379694Y5766004D01*
X22218709Y5819349D01*
X22119352Y5829500D01*
X22119345Y5829500D01*
X21726117Y5829500D01*
X21659078Y5849185D01*
X21642755Y5861703D01*
X20744549Y6677374D01*
X20744546Y6677376D01*
X20744540Y6677382D01*
X20712292Y6704309D01*
X20712289Y6704311D01*
X20707903Y6707973D01*
X20708173Y6708297D01*
X20698886Y6716034D01*
X6754344Y20660576D01*
X6739374Y20678696D01*
X6189848Y21489633D01*
X6168536Y21556173D01*
X6168499Y21559194D01*
X6168499Y22768871D01*
X6168498Y22768877D01*
X6162091Y22828484D01*
X6111797Y22963329D01*
X6111793Y22963336D01*
X6025547Y23078545D01*
X6025544Y23078548D01*
X5910335Y23164794D01*
X5902546Y23169047D01*
X5904267Y23172201D01*
X5862025Y23203814D01*
X5837599Y23269275D01*
X5852442Y23337550D01*
X5860964Y23351023D01*
X5950914Y23474829D01*
X6058102Y23685198D01*
X6131065Y23909753D01*
X6168000Y24142948D01*
X6168000Y24379053D01*
X6131065Y24612248D01*
X6058102Y24836803D01*
X5950914Y25047172D01*
X5812133Y25238187D01*
X5645186Y25405134D01*
X5454171Y25543915D01*
X5243802Y25651103D01*
X5019246Y25724066D01*
X4903026Y25742474D01*
X4903024Y25742473D01*
X3155680Y23995129D01*
X3094357Y23961644D01*
X3024665Y23966628D01*
X2980318Y23995129D01*
X1232974Y25742474D01*
X1232972Y25742474D01*
X1116753Y25724066D01*
X892197Y25651103D01*
X680795Y25543388D01*
X612126Y25530492D01*
X547385Y25556768D01*
X507128Y25613875D01*
X500500Y25653873D01*
X500500Y25761000D01*
X1921553Y25761000D01*
X3068000Y24614554D01*
X4214446Y25761000D01*
X1921553Y25761000D01*
X500500Y25761000D01*
X500500Y29621500D01*
X520185Y29688539D01*
X572989Y29734294D01*
X624500Y29745500D01*
X14854000Y29745500D01*
X14921039Y29725815D01*
G37*
%TD.AperFunction*%
%TD*%
%TA.AperFunction,Conductor*%
%TO.N,GNDA*%
G36*
X36808539Y29725815D02*
G01*
X36854294Y29673011D01*
X36865500Y29621500D01*
X36865500Y18424000D01*
X36845815Y18356961D01*
X36793011Y18311206D01*
X36741500Y18300000D01*
X27068000Y18300000D01*
X27000961Y18319685D01*
X26955206Y18372489D01*
X26944000Y18424000D01*
X26944000Y20583425D01*
X30729976Y20583425D01*
X30729976Y20583423D01*
X30816423Y20443272D01*
X30936271Y20323425D01*
X31080507Y20234458D01*
X31080518Y20234453D01*
X31241393Y20181145D01*
X31340683Y20171001D01*
X32787307Y20171001D01*
X32787323Y20171002D01*
X32886607Y20181145D01*
X33047481Y20234453D01*
X33047492Y20234458D01*
X33197879Y20327218D01*
X33199556Y20324499D01*
X33251079Y20345342D01*
X33319734Y20332368D01*
X33339086Y20318290D01*
X33339712Y20319125D01*
X33461906Y20227650D01*
X33461913Y20227646D01*
X33596620Y20177404D01*
X33596627Y20177402D01*
X33656155Y20171001D01*
X33656172Y20171000D01*
X35004942Y20171000D01*
X35004943Y20171001D01*
X35088925Y20181550D01*
X35221758Y20236571D01*
X35288597Y20288493D01*
X35288610Y20288504D01*
X35760776Y20760671D01*
X35760776Y20760672D01*
X34604000Y21917447D01*
X33507000Y20820448D01*
X33507000Y20771447D01*
X33487315Y20704408D01*
X33434511Y20658653D01*
X33383000Y20647447D01*
X33285000Y20647447D01*
X33217961Y20667132D01*
X33172206Y20719936D01*
X33161000Y20771447D01*
X33161000Y20820447D01*
X32064000Y21917447D01*
X30729976Y20583425D01*
X26944000Y20583425D01*
X26944000Y21224554D01*
X30664000Y21224554D01*
X31710447Y22271000D01*
X32417553Y22271000D01*
X33334000Y21354553D01*
X34250447Y22271000D01*
X34250446Y22271001D01*
X34957553Y22271001D01*
X34957553Y22271000D01*
X36003999Y21224553D01*
X36004000Y21224554D01*
X36004000Y23317447D01*
X36003999Y23317448D01*
X34957553Y22271001D01*
X34250446Y22271001D01*
X33334000Y23187447D01*
X32417553Y22271000D01*
X31710447Y22271000D01*
X31710447Y22271001D01*
X30664000Y23317448D01*
X30664000Y21224554D01*
X26944000Y21224554D01*
X26944000Y22883719D01*
X26963685Y22950758D01*
X26980319Y22971400D01*
X27010287Y23001368D01*
X27261202Y23252283D01*
X27261206Y23252285D01*
X27400563Y23391642D01*
X27510056Y23555510D01*
X27563385Y23684259D01*
X27585475Y23737588D01*
X27623924Y23930884D01*
X27623924Y23958578D01*
X30729976Y23958578D01*
X30729976Y23958577D01*
X32064000Y22624553D01*
X33160999Y23721553D01*
X33161000Y23721554D01*
X33161000Y23770553D01*
X33180685Y23837592D01*
X33233489Y23883347D01*
X33285000Y23894553D01*
X33383000Y23894553D01*
X33450039Y23874868D01*
X33495794Y23822064D01*
X33507000Y23770553D01*
X33507000Y23721553D01*
X34604000Y22624553D01*
X34604001Y22624553D01*
X35986792Y24007346D01*
X35947352Y24113091D01*
X35947351Y24113092D01*
X35861190Y24228188D01*
X35861187Y24228191D01*
X35746093Y24314351D01*
X35746086Y24314355D01*
X35611379Y24364597D01*
X35611372Y24364599D01*
X35551844Y24371000D01*
X33656155Y24371000D01*
X33596627Y24364599D01*
X33596620Y24364597D01*
X33461913Y24314355D01*
X33461906Y24314351D01*
X33339712Y24222875D01*
X33337941Y24225241D01*
X33289642Y24198881D01*
X33219952Y24203883D01*
X33198577Y24215915D01*
X33197879Y24214782D01*
X33047492Y24307543D01*
X33047481Y24307548D01*
X32886606Y24360856D01*
X32787316Y24371000D01*
X31340692Y24371000D01*
X31340676Y24370999D01*
X31241392Y24360856D01*
X31080518Y24307548D01*
X31080507Y24307543D01*
X30936271Y24218576D01*
X30816427Y24098733D01*
X30729976Y23958578D01*
X27623924Y23958578D01*
X27623924Y24127964D01*
X27623924Y24514184D01*
X27643609Y24581223D01*
X27671382Y24611741D01*
X28496472Y25259060D01*
X28561366Y25284953D01*
X28573011Y25285501D01*
X29416002Y25285501D01*
X29416008Y25285501D01*
X29518797Y25296001D01*
X29685334Y25351186D01*
X29834656Y25443288D01*
X29958712Y25567344D01*
X30050814Y25716666D01*
X30105999Y25883203D01*
X30116500Y25985991D01*
X30116499Y27164163D01*
X32443500Y27164163D01*
X32443500Y26935838D01*
X32479215Y26710340D01*
X32549770Y26493197D01*
X32597320Y26399876D01*
X32653421Y26289772D01*
X32787621Y26105063D01*
X32949063Y25943621D01*
X33133772Y25809421D01*
X33223428Y25763739D01*
X33337196Y25705771D01*
X33337198Y25705771D01*
X33337201Y25705769D01*
X33453592Y25667951D01*
X33554339Y25635216D01*
X33779838Y25599500D01*
X33779843Y25599500D01*
X34008162Y25599500D01*
X34233660Y25635216D01*
X34450799Y25705769D01*
X34654228Y25809421D01*
X34838937Y25943621D01*
X35000379Y26105063D01*
X35134579Y26289772D01*
X35238231Y26493201D01*
X35308784Y26710340D01*
X35344500Y26935838D01*
X35344500Y27164163D01*
X35308784Y27389661D01*
X35238229Y27606804D01*
X35134578Y27810229D01*
X35124504Y27824095D01*
X35000379Y27994937D01*
X34838937Y28156379D01*
X34654228Y28290579D01*
X34450803Y28394230D01*
X34233660Y28464785D01*
X34008162Y28500500D01*
X34008157Y28500500D01*
X33779843Y28500500D01*
X33779838Y28500500D01*
X33554339Y28464785D01*
X33337196Y28394230D01*
X33133771Y28290579D01*
X32949061Y28156378D01*
X32787622Y27994939D01*
X32653421Y27810229D01*
X32549770Y27606804D01*
X32479215Y27389661D01*
X32443500Y27164163D01*
X30116499Y27164163D01*
X30116499Y27886008D01*
X30116435Y27886630D01*
X30105999Y27988797D01*
X30105998Y27988800D01*
X30103964Y27994939D01*
X30050814Y28155334D01*
X29958712Y28304656D01*
X29834656Y28428712D01*
X29738332Y28488125D01*
X29685336Y28520813D01*
X29685331Y28520815D01*
X29683862Y28521302D01*
X29518797Y28575999D01*
X29518795Y28576000D01*
X29416010Y28586500D01*
X26315998Y28586500D01*
X26315981Y28586499D01*
X26213203Y28576000D01*
X26213200Y28575999D01*
X26046668Y28520815D01*
X26046663Y28520813D01*
X25897342Y28428711D01*
X25773289Y28304658D01*
X25681187Y28155337D01*
X25681186Y28155334D01*
X25626001Y27988797D01*
X25626001Y27988796D01*
X25626000Y27988796D01*
X25615500Y27886017D01*
X25615500Y25985999D01*
X25615501Y25985981D01*
X25624481Y25898081D01*
X25625120Y25884636D01*
X25624625Y25811899D01*
X25623215Y25798052D01*
X25623520Y25798022D01*
X25622924Y25791969D01*
X25622924Y25561947D01*
X25622921Y25561104D01*
X25619291Y25027157D01*
X25599151Y24960253D01*
X25546037Y24914858D01*
X25495294Y24904000D01*
X22755334Y24904000D01*
X22688295Y24923685D01*
X22642540Y24976489D01*
X22632596Y25045647D01*
X22661621Y25109203D01*
X22688206Y25132258D01*
X22895550Y25265759D01*
X22962573Y25285501D01*
X24016002Y25285501D01*
X24016008Y25285501D01*
X24118797Y25296001D01*
X24285334Y25351186D01*
X24434656Y25443288D01*
X24558712Y25567344D01*
X24650814Y25716666D01*
X24705999Y25883203D01*
X24716500Y25985991D01*
X24716499Y27886008D01*
X24716435Y27886630D01*
X24705999Y27988797D01*
X24705998Y27988800D01*
X24703964Y27994939D01*
X24650814Y28155334D01*
X24558712Y28304656D01*
X24434656Y28428712D01*
X24338332Y28488125D01*
X24285336Y28520813D01*
X24285331Y28520815D01*
X24283862Y28521302D01*
X24118797Y28575999D01*
X24118795Y28576000D01*
X24016010Y28586500D01*
X20915998Y28586500D01*
X20915981Y28586499D01*
X20813203Y28576000D01*
X20813200Y28575999D01*
X20646668Y28520815D01*
X20646663Y28520813D01*
X20497342Y28428711D01*
X20373289Y28304658D01*
X20281187Y28155337D01*
X20281186Y28155334D01*
X20226001Y27988797D01*
X20226001Y27988796D01*
X20226000Y27988796D01*
X20215500Y27886017D01*
X20215500Y26607865D01*
X20210884Y26574348D01*
X19970404Y25717788D01*
X19938701Y25663624D01*
X19215399Y24940319D01*
X19154076Y24906834D01*
X19127718Y24904000D01*
X17062283Y24904000D01*
X16995244Y24923685D01*
X16974602Y24940319D01*
X16151182Y25763739D01*
X16117697Y25825062D01*
X16122681Y25894754D01*
X16164553Y25950687D01*
X16230017Y25975104D01*
X16251466Y25974778D01*
X16308020Y25969001D01*
X16707999Y25969001D01*
X16708000Y25969002D01*
X16708000Y27039855D01*
X16774657Y27001370D01*
X16895465Y26969000D01*
X17020535Y26969000D01*
X17141343Y27001370D01*
X17208000Y27039855D01*
X17208000Y25969001D01*
X17607972Y25969001D01*
X17607986Y25969002D01*
X17710697Y25979495D01*
X17877119Y26034642D01*
X17877124Y26034644D01*
X18026345Y26126685D01*
X18150315Y26250655D01*
X18242356Y26399876D01*
X18242358Y26399881D01*
X18297505Y26566303D01*
X18297506Y26566310D01*
X18307999Y26669014D01*
X18308000Y26669027D01*
X18308000Y27194000D01*
X17362146Y27194000D01*
X17400630Y27260657D01*
X17433000Y27381465D01*
X17433000Y27506535D01*
X17400630Y27627343D01*
X17362146Y27694000D01*
X18307999Y27694000D01*
X18307999Y28218972D01*
X18307998Y28218987D01*
X18297505Y28321698D01*
X18242358Y28488120D01*
X18242356Y28488125D01*
X18150315Y28637346D01*
X18026345Y28761316D01*
X17877124Y28853357D01*
X17877119Y28853359D01*
X17710697Y28908506D01*
X17710690Y28908507D01*
X17607986Y28919000D01*
X17208000Y28919000D01*
X17208000Y27848146D01*
X17141343Y27886630D01*
X17020535Y27919000D01*
X16895465Y27919000D01*
X16774657Y27886630D01*
X16708000Y27848146D01*
X16708000Y28919000D01*
X16308028Y28919000D01*
X16308012Y28918999D01*
X16205299Y28908506D01*
X16157002Y28892502D01*
X16087174Y28890101D01*
X16027133Y28925833D01*
X15995941Y28988354D01*
X15994000Y29010208D01*
X15994000Y29621500D01*
X16013685Y29688539D01*
X16066489Y29734294D01*
X16118000Y29745500D01*
X36741500Y29745500D01*
X36808539Y29725815D01*
G37*
%TD.AperFunction*%
%TD*%
%TA.AperFunction,Conductor*%
%TO.N,Net-(D2-Vin1)*%
G36*
X27870490Y26926102D02*
G01*
X27871084Y26924889D01*
X28345718Y25794227D01*
X28345761Y25785272D01*
X28342152Y25780493D01*
X27126604Y24826841D01*
X27119382Y24824346D01*
X26135204Y24824346D01*
X26126931Y24827773D01*
X26123504Y24836046D01*
X26123504Y24836126D01*
X26131097Y25953081D01*
X26134580Y25961327D01*
X26137051Y25963190D01*
X27854555Y26930555D01*
X27863444Y26931628D01*
X27870490Y26926102D01*
G37*
%TD.AperFunction*%
%TD*%
%TA.AperFunction,Conductor*%
%TO.N,Net-(D2-Vin1)*%
G36*
X24843227Y23584321D02*
G01*
X24845871Y23581845D01*
X25118842Y23231949D01*
X25118846Y23231945D01*
X25817105Y22533686D01*
X25820532Y22525413D01*
X25817105Y22517140D01*
X25816536Y22516607D01*
X24842800Y21664706D01*
X24834317Y21661838D01*
X24828524Y21663832D01*
X23944980Y22263716D01*
X23940060Y22271199D01*
X23941871Y22279965D01*
X24826973Y23581228D01*
X24834459Y23586141D01*
X24843227Y23584321D01*
G37*
%TD.AperFunction*%
%TD*%
%TA.AperFunction,Conductor*%
%TO.N,+12V*%
G36*
X14463605Y27442502D02*
G01*
X15282684Y27156312D01*
X15289364Y27150348D01*
X15290425Y27143740D01*
X15148197Y26063364D01*
X15144870Y26056618D01*
X14452441Y25364189D01*
X14444168Y25360762D01*
X14435895Y25364189D01*
X14433544Y25367561D01*
X13754976Y26838688D01*
X13754623Y26847634D01*
X13758039Y26852514D01*
X14452189Y27440385D01*
X14460715Y27443116D01*
X14463605Y27442502D01*
G37*
%TD.AperFunction*%
%TD*%
%TA.AperFunction,Conductor*%
%TO.N,+12V*%
G36*
X22464371Y26932600D02*
G01*
X22469642Y26925561D01*
X22767622Y25794218D01*
X22766415Y25785345D01*
X22762642Y25781401D01*
X21130381Y24730449D01*
X21121570Y24728851D01*
X21115774Y24732013D01*
X20420182Y25427605D01*
X20416755Y25435878D01*
X20417191Y25439041D01*
X20714159Y26496807D01*
X20719694Y26503845D01*
X20722609Y26505001D01*
X22455519Y26933938D01*
X22464371Y26932600D01*
G37*
%TD.AperFunction*%
%TD*%
%TA.AperFunction,Conductor*%
%TO.N,CAN-L*%
G36*
X13397136Y25457197D02*
G01*
X13784635Y25106339D01*
X14486400Y24470931D01*
X14490233Y24462838D01*
X14489926Y24459534D01*
X14025858Y22520813D01*
X14020599Y22513565D01*
X14011755Y22512158D01*
X14005822Y22515666D01*
X13023088Y23596603D01*
X13020046Y23604592D01*
X13035283Y25106341D01*
X13038708Y25114492D01*
X13381013Y25456797D01*
X13389285Y25460223D01*
X13397136Y25457197D01*
G37*
%TD.AperFunction*%
%TD*%
%TA.AperFunction,Conductor*%
%TO.N,CAN-L*%
G36*
X12798023Y27320475D02*
G01*
X12805706Y27315876D01*
X12808012Y27308916D01*
X12809635Y26048765D01*
X12806219Y26040488D01*
X12464154Y25698423D01*
X12455881Y25694996D01*
X12447822Y25698214D01*
X11967520Y26154542D01*
X11492389Y26605958D01*
X11488753Y26614139D01*
X11490268Y26620202D01*
X11953340Y27437729D01*
X11960397Y27443237D01*
X11965225Y27443535D01*
X12798023Y27320475D01*
G37*
%TD.AperFunction*%
%TD*%
%TA.AperFunction,Conductor*%
%TO.N,CAN-H*%
G36*
X10897145Y25457017D02*
G01*
X11107183Y25262458D01*
X11973879Y24459637D01*
X11977619Y24451501D01*
X11977266Y24448165D01*
X11486075Y22520364D01*
X11480711Y22513193D01*
X11471848Y22511915D01*
X11466080Y22515382D01*
X10483209Y23596470D01*
X10480174Y23604768D01*
X10535163Y25106523D01*
X10538581Y25114365D01*
X10880923Y25456707D01*
X10889195Y25460133D01*
X10897145Y25457017D01*
G37*
%TD.AperFunction*%
%TD*%
%TA.AperFunction,Conductor*%
%TO.N,CAN-H*%
G36*
X10297884Y27320495D02*
G01*
X10305568Y27315896D01*
X10307873Y27308777D01*
X10292542Y26065831D01*
X10289116Y26057702D01*
X9946991Y25715577D01*
X9938718Y25712150D01*
X9930663Y25715364D01*
X8992397Y26605956D01*
X8988756Y26614137D01*
X8990272Y26620208D01*
X9453340Y27437729D01*
X9460397Y27443237D01*
X9465225Y27443535D01*
X10297884Y27320495D01*
G37*
%TD.AperFunction*%
%TD*%
%TA.AperFunction,Conductor*%
%TO.N,+3.3V*%
G36*
X5530299Y11164367D02*
G01*
X5532151Y11162828D01*
X6524577Y10148157D01*
X6527912Y10139847D01*
X6524486Y10131704D01*
X6182225Y9789443D01*
X6174725Y9786042D01*
X4866488Y9699440D01*
X4860104Y9700847D01*
X3095619Y10665226D01*
X3090003Y10672201D01*
X3090963Y10681104D01*
X3097938Y10686720D01*
X3098946Y10686968D01*
X5521520Y11166124D01*
X5530299Y11164367D01*
G37*
%TD.AperFunction*%
%TD*%
%TA.AperFunction,Conductor*%
%TO.N,+3.3V*%
G36*
X9922618Y6096573D02*
G01*
X9926044Y6088465D01*
X9939951Y5103442D01*
X9938175Y5097079D01*
X8951139Y3516835D01*
X8943850Y3511633D01*
X8935018Y3513110D01*
X8930718Y3517868D01*
X8283720Y4833061D01*
X8283143Y4841998D01*
X8285559Y4846095D01*
X9422400Y6096172D01*
X9430502Y6099987D01*
X9431056Y6100000D01*
X9914345Y6100000D01*
X9922618Y6096573D01*
G37*
%TD.AperFunction*%
%TD*%
%TA.AperFunction,Conductor*%
%TO.N,RX*%
G36*
X5518924Y16271988D02*
G01*
X5520775Y16270490D01*
X6534657Y15262844D01*
X6538109Y15254581D01*
X6534708Y15246297D01*
X6534682Y15246272D01*
X6192420Y14904010D01*
X6185217Y14900632D01*
X4866641Y14779542D01*
X4859960Y14780926D01*
X3095109Y15745505D01*
X3089493Y15752480D01*
X3090453Y15761383D01*
X3097428Y15766999D01*
X3098292Y15767217D01*
X5510125Y16273641D01*
X5518924Y16271988D01*
G37*
%TD.AperFunction*%
%TD*%
%TA.AperFunction,Conductor*%
%TO.N,RX*%
G36*
X13503353Y6092953D02*
G01*
X14582620Y5105237D01*
X14586410Y5097124D01*
X14585747Y5092692D01*
X14022361Y3505652D01*
X14016364Y3499002D01*
X14013015Y3497987D01*
X13033282Y3355804D01*
X13024603Y3358007D01*
X13020023Y3365703D01*
X13019902Y3367298D01*
X13018941Y3499000D01*
X13000086Y6084237D01*
X13003453Y6092535D01*
X13011701Y6096022D01*
X13495454Y6096022D01*
X13503353Y6092953D01*
G37*
%TD.AperFunction*%
%TD*%
%TA.AperFunction,Conductor*%
%TO.N,TX*%
G36*
X11731833Y6096573D02*
G01*
X11733445Y6094559D01*
X12456867Y4952150D01*
X12458398Y4943328D01*
X12456666Y4939325D01*
X11489684Y3513282D01*
X11482204Y3508358D01*
X11473434Y3510164D01*
X11470316Y3513282D01*
X10503333Y4939325D01*
X10501527Y4948095D01*
X10503130Y4952147D01*
X11226555Y6094559D01*
X11233877Y6099716D01*
X11236440Y6100000D01*
X11723560Y6100000D01*
X11731833Y6096573D01*
G37*
%TD.AperFunction*%
%TD*%
%TA.AperFunction,Conductor*%
%TO.N,TX*%
G36*
X5582195Y13578697D02*
G01*
X5583909Y13577125D01*
X6525301Y12523133D01*
X6528256Y12514680D01*
X6524848Y12507066D01*
X6182641Y12164859D01*
X6174368Y12161432D01*
X6174129Y12161434D01*
X2921158Y12227875D01*
X2912957Y12231471D01*
X2909699Y12239812D01*
X2909845Y12241430D01*
X2955137Y12523133D01*
X3065926Y13212210D01*
X3070623Y13219833D01*
X3075812Y13221932D01*
X5573520Y13580912D01*
X5582195Y13578697D01*
G37*
%TD.AperFunction*%
%TD*%
%TA.AperFunction,Conductor*%
%TO.N,+5V*%
G36*
X23043550Y4622451D02*
G01*
X23928717Y3737283D01*
X23932144Y3729010D01*
X23928717Y3720737D01*
X23928708Y3720728D01*
X23043560Y2837545D01*
X23035283Y2834127D01*
X23027800Y2836844D01*
X22140204Y3577493D01*
X22136047Y3585424D01*
X22136000Y3586476D01*
X22136000Y3875516D01*
X22139427Y3883789D01*
X22140216Y3884509D01*
X23027793Y4623171D01*
X23036344Y4625829D01*
X23043550Y4622451D01*
G37*
%TD.AperFunction*%
%TD*%
%TA.AperFunction,Conductor*%
%TO.N,+5V*%
G36*
X22304206Y4623171D02*
G01*
X23191784Y3884509D01*
X23195951Y3876583D01*
X23196000Y3875516D01*
X23196000Y3586476D01*
X23192573Y3578203D01*
X23191796Y3577493D01*
X22304199Y2836844D01*
X22295651Y2834174D01*
X22288439Y2837545D01*
X21403291Y3720728D01*
X21399855Y3728997D01*
X21403272Y3737273D01*
X22288450Y4622452D01*
X22296722Y4625878D01*
X22304206Y4623171D01*
G37*
%TD.AperFunction*%
%TD*%
%TA.AperFunction,Conductor*%
%TO.N,+5V*%
G36*
X5662850Y21359336D02*
G01*
X5670569Y21354799D01*
X5670917Y21354312D01*
X6334238Y20375448D01*
X6336042Y20366678D01*
X6332825Y20360613D01*
X5637875Y19665663D01*
X5629602Y19662236D01*
X5625502Y19662978D01*
X2807409Y20717272D01*
X2800861Y20723380D01*
X2800213Y20731274D01*
X3064605Y21711740D01*
X3070066Y21718834D01*
X3077516Y21720280D01*
X5662850Y21359336D01*
G37*
%TD.AperFunction*%
%TD*%
%TA.AperFunction,Conductor*%
%TO.N,+5V*%
G36*
X20404705Y6303160D02*
G01*
X21473338Y5332722D01*
X21477158Y5324623D01*
X21477157Y5323471D01*
X21397131Y3736714D01*
X21393292Y3728624D01*
X21388584Y3726032D01*
X20506288Y3480402D01*
X20497399Y3481484D01*
X20492211Y3487522D01*
X20401715Y3726032D01*
X19692030Y5596474D01*
X19692299Y5605425D01*
X19694693Y5608895D01*
X20388569Y6302771D01*
X20396841Y6306197D01*
X20404705Y6303160D01*
G37*
%TD.AperFunction*%
%TD*%
M02*
